# xmcd
#
# Track frame offsets:
#	182
#	16350
#	35207
#	53092
#	71467
#	81375
#	97682
#	117482
#	144332
#	157757
#	177702
#
# Disc length: 2646 seconds
#
# Revision: 0
# Processed by: cddbd v1.4PL0 Copyright (c) Steve Scherf et al.
# Submitted via: audiograbber 1.81.02
#
DISCID=8e0a540b
DTITLE=Ludwig Hirsch - In Meiner Sprache
DYEAR=1991
DGENRE=Liedermacher
TTITLE0=Sternderl schaun
TTITLE1=Ned Du
TTITLE2=Jonas I
TTITLE3=In Deriner Sprache
TTITLE4=Jonas II
TTITLE5=Nelli
TTITLE6=Die Hand
TTITLE7=Mondkinder
TTITLE8=Boo - Gie Woogie
TTITLE9=Engerl
TTITLE10=Der fremde Musikant
EXTD=
EXTT0=
EXTT1=
EXTT2=
EXTT3=
EXTT4=
EXTT5=
EXTT6=
EXTT7=
EXTT8=
EXTT9=
EXTT10=
PLAYORDER=
